<?xml version="1.0" encoding="UTF-8"?>
<svg id="_레이어_2" data-name="레이어 2" xmlns="http://www.w3.org/2000/svg" viewBox="0 0 511 286">
  <defs>
    <style>
      .cls-1 {
        fill: #231815;
      }

      .cls-2 {
        fill: #ea5514;
      }
    </style>
  </defs>
  <polygon class="cls-2" points="140.21 247.63 152.39 247.63 152.39 212.5 140.21 219.55 140.21 247.63"/>
  <path d="M495.74,247.63h-14.2c-.52-1.44-.86-2.79-1.02-4.07-.17-1.26-.25-3.55-.25-6.84v-16.24c0-4.07-.66-6.9-1.96-8.5-1.32-1.61-3.58-2.41-6.79-2.41h-4.82v38.05h-13.95v-88.8h20.68c7.18,0,12.42,1.67,15.72,5.02,3.31,3.34,4.95,8.47,4.95,15.41v5.45c0,9.21-3.04,15.04-9.13,17.5v.25c3.38,1.02,5.78,3.08,7.16,6.21,1.4,3.14,2.09,7.32,2.09,12.56v15.61c0,2.54.08,4.58.25,6.16.17,1.56.59,3.1,1.28,4.63ZM480.14,187.51v-6.86c0-3.21-.57-5.54-1.71-6.97-1.14-1.44-2.94-2.16-5.38-2.16h-6.35v25.36h5.08c2.79,0,4.88-.72,6.28-2.16,1.39-1.43,2.09-3.84,2.09-7.22Z"/>
  <polygon points="444.75 234.94 444.75 247.63 406.69 247.63 406.69 158.84 444.75 158.84 444.75 171.53 420.66 171.53 420.66 194.98 439.81 194.98 439.81 207.67 420.66 207.67 420.66 234.94 444.75 234.94"/>
  <polygon points="399.98 158.84 399.98 171.53 385.39 171.53 385.39 247.63 371.44 247.63 371.44 171.53 356.85 171.53 356.85 158.84 399.98 158.84"/>
  <path d="M352.29,179.9v3.67h-13.19v-4.56c0-3.04-.59-5.27-1.78-6.66-1.18-1.4-2.92-2.09-5.2-2.09-4.64,0-6.97,2.83-6.97,8.5,0,3.21.86,6.21,2.59,9s4.88,6.17,9.45,10.15c5.83,5.06,9.86,9.67,12.06,13.83,2.19,4.14,3.3,9,3.3,14.58,0,7.28-1.79,12.86-5.4,16.74-3.59,3.88-8.81,5.83-15.66,5.83s-11.88-1.92-15.35-5.76c-3.46-3.86-5.19-9.37-5.19-16.56v-5.08h13.18v6.09c0,5.76,2.41,8.64,7.24,8.64,2.37,0,4.16-.7,5.4-2.1,1.22-1.39,1.84-3.66,1.84-6.79,0-3.72-.86-7-2.54-9.83-1.7-2.83-4.82-6.23-9.39-10.21-5.75-5.08-9.76-9.66-12.04-13.77-2.29-4.09-3.42-8.72-3.42-13.88,0-7.02,1.77-12.45,5.33-16.31,3.55-3.84,8.71-5.76,15.47-5.76s11.74,1.92,15.16,5.76c3.44,3.86,5.15,9.37,5.15,16.56Z"/>
  <polygon points="302.95 169.74 302.95 247.63 288.62 247.63 273.28 188.25 282.7 182.38 290.26 211.99 290.51 211.99 290.51 177.5 302.95 169.74"/>
  <polygon points="271.61 189.29 271.61 247.63 259.19 247.63 259.19 197.04 271.61 189.29"/>
  <path d="M249.81,202.89v23.68c0,7.11-1.82,12.61-5.45,16.49-3.65,3.88-8.89,5.83-15.73,5.83s-12.1-1.95-15.73-5.83c-3.17-3.38-4.95-7.99-5.36-13.81l13.85-8.64v6.84c0,5.83,2.41,8.76,7.24,8.76s7.22-2.93,7.22-8.76v-15.86l13.97-8.71Z"/>
  <polygon class="cls-2" points="249.81 180.88 249.81 197.72 235.84 208.02 235.84 189.56 249.81 180.88"/>
  <path class="cls-2" d="M224.58,170.73l.22.39c-2.29,1.25-3.42,3.88-3.42,7.89v12.72l-13.95,10.5v-21.58l17.15-9.93Z"/>
  <path class="cls-2" d="M221.39,198.54v20.15l-13.87,10.25c-.06-.77-.08-1.56-.08-2.37v-19.35l13.95-8.68Z"/>
  <path class="cls-2" d="M212.89,163.41c2.59-2.78,6.02-4.53,10.24-5.33-4.37,3.3-8.85,6.65-13.35,9.98.81-1.74,1.85-3.31,3.11-4.66Z"/>
  <polygon class="cls-2" points="198.06 213.06 198.06 247.63 184.86 247.63 184.86 221.26 198.06 213.06"/>
  <polygon class="cls-2" points="198.06 186.08 198.06 209.28 184.86 219.21 184.86 193.72 198.06 186.08"/>
  <path class="cls-2" d="M198.06,158.84v17.85c-4.44,3.25-8.86,6.46-13.19,9.59v-5.87h-.25l-1.02,6.8c-3.56,2.57-7.05,5.08-10.46,7.52l5.01-35.88h19.92Z"/>
  <polygon class="cls-2" points="182.38 195.15 177.96 224.4 169.13 231.05 177.77 225.66 174.46 247.63 162.79 247.63 157.07 209.79 166.48 204.35 169 222.39 169.26 222.39 172.24 201.01 182.38 195.15"/>
  <path class="cls-2" d="M160.13,158.84l5.73,41.05c-3.22,2.3-6.34,4.5-9.28,6.59l-3.94-26.08h-.25v29.04c-4.56,3.21-8.65,6.1-12.17,8.55v-59.16h19.91Z"/>
  <g>
    <g>
      <polygon class="cls-1" points="335.6 76.09 335.6 65.73 304.53 65.73 304.53 126.56 304.53 133.05 304.53 138.24 316.18 138.24 328.31 138.24 335.6 138.24 335.6 132.85 335.6 127.89 332.82 127.89 315.92 127.89 315.92 124.48 315.92 119.97 315.92 105.61 331.56 105.61 331.56 95.25 315.92 95.25 315.92 76.09 335.6 76.09"/>
      <path class="cls-1" d="M296.67,131.1c-.01-.53-.02-1.08-.02-1.67v-12.73c0-4.28-.57-7.71-1.71-10.26-1.15-2.55-3.09-4.25-5.85-5.07v-.21c4.97-2,7.45-6.77,7.45-14.3v-4.45c0-5.66-1.35-9.85-4.04-12.58-2.69-2.73-6.97-4.09-12.84-4.09h-16.89v72.5h11.39v-31.08h3.94c2.62,0,4.47.66,5.54,1.97,1.06,1.32,1.6,3.63,1.6,6.94v13.26c0,2.7.07,4.56.21,5.6.1.74.3,1.53.54,2.35.09.32.17.63.29.96h11.34l.21-.15c-.52-1.19-.84-2.4-.97-3.63-.09-.92-.16-2.04-.18-3.35ZM285.16,89.14c0,2.77-.57,4.74-1.71,5.91-1.15,1.18-2.85,1.76-5.13,1.76h-4.14v-20.71h5.18c2,0,3.47.58,4.41,1.75.93,1.18,1.4,3.08,1.4,5.7v5.59Z"/>
    </g>
    <path class="cls-1" d="M254.7,65.73v55.32c0,5.86-1.44,10.37-4.34,13.51-2.91,3.15-7.12,4.72-12.64,4.72s-9.74-1.57-12.64-4.72c-2.9-3.14-4.35-7.65-4.35-13.51v-55.32h11.39v56.14c0,2.48.5,4.28,1.51,5.38,1,1.11,2.43,1.66,4.29,1.66s3.3-.55,4.29-1.66c1.01-1.1,1.5-2.9,1.5-5.38v-56.14h10.98Z"/>
  </g>
  <g>
    <path class="cls-2" d="M91.31,228.01h0c-19.33-14.14-21.12-82.72-2.98-98.36L242.83,37.11,60.2,104.27,15.26,204.44l60.77,44.46,15.28-20.88Z"/>
    <path class="cls-2" d="M167.65,103.77l-49.29,32.34s36.31,22.69,49.29-32.34Z"/>
  </g>
  <path class="cls-2" d="M299.91,127.16l-13.95,8.07h0s-9.62,5.56-9.62,5.56h0s-13.07,7.56-13.07,7.56l-21.8,12.62-16.88,9.76.22.39c1.04-.57,2.31-.86,3.81-.86,4.82,0,7.22,2.92,7.22,8.75v1.85l12.82-9.63,10.53-7.92,5.93-4.47h0l12.38-9.31.25-.18.26-.2,21.89-16.46,31.83-23.95-31.83,18.42Z"/>
  <polygon class="cls-2" points="318.27 138.46 300.22 149.53 277.87 163.42 259.19 175.04 259.19 190.79 280.78 174.85 290.51 167.67 302.47 158.84 315.08 149.53 321.66 144.55 392.16 92.51 318.27 138.46"/>
</svg>